<mxfile host="app.diagrams.net" modified="2023-05-14T23:10:52.168Z" agent="Mozilla/5.0 (Windows NT 10.0; Win64; x64) AppleWebKit/537.36 (KHTML, like Gecko) Chrome/113.0.0.0 Safari/537.36" etag="6-D9uFCu0M7FaVHTwQC7" version="21.3.0" type="device">
  <diagram name="Страница 1" id="8XWWLKYMS8BPY93dCRFM">
    <mxGraphModel dx="737" dy="314" grid="1" gridSize="10" guides="1" tooltips="1" connect="1" arrows="1" fold="1" page="1" pageScale="1" pageWidth="827" pageHeight="1169" math="0" shadow="0">
      <root>
        <mxCell id="0" />
        <mxCell id="1" parent="0" />
        <mxCell id="dH_yjZAZ00_U3dzywP2J-1" value="User" style="shape=umlActor;verticalLabelPosition=bottom;verticalAlign=top;html=1;outlineConnect=0;" parent="1" vertex="1">
          <mxGeometry x="190" y="220" width="30" height="60" as="geometry" />
        </mxCell>
        <mxCell id="dH_yjZAZ00_U3dzywP2J-2" value="Admin" style="shape=umlActor;verticalLabelPosition=bottom;verticalAlign=top;html=1;outlineConnect=0;" parent="1" vertex="1">
          <mxGeometry x="520" y="220" width="30" height="60" as="geometry" />
        </mxCell>
        <mxCell id="dH_yjZAZ00_U3dzywP2J-3" value="" style="endArrow=classic;html=1;rounded=0;" parent="1" edge="1">
          <mxGeometry width="50" height="50" relative="1" as="geometry">
            <mxPoint x="534.82" y="210" as="sourcePoint" />
            <mxPoint x="534.82" y="170" as="targetPoint" />
            <Array as="points">
              <mxPoint x="534.82" y="200" />
              <mxPoint x="534.82" y="190" />
            </Array>
          </mxGeometry>
        </mxCell>
        <mxCell id="dH_yjZAZ00_U3dzywP2J-4" value="" style="endArrow=classic;html=1;rounded=0;" parent="1" edge="1">
          <mxGeometry width="50" height="50" relative="1" as="geometry">
            <mxPoint x="534.82" y="310" as="sourcePoint" />
            <mxPoint x="534.82" y="350" as="targetPoint" />
          </mxGeometry>
        </mxCell>
        <mxCell id="dH_yjZAZ00_U3dzywP2J-8" value="" style="endArrow=classic;html=1;rounded=0;" parent="1" edge="1">
          <mxGeometry width="50" height="50" relative="1" as="geometry">
            <mxPoint x="560" y="220" as="sourcePoint" />
            <mxPoint x="580" y="200" as="targetPoint" />
          </mxGeometry>
        </mxCell>
        <mxCell id="UZbxEznuN5tXVeX-XE2H-1" value="" style="endArrow=classic;html=1;rounded=0;" edge="1" parent="1">
          <mxGeometry width="50" height="50" relative="1" as="geometry">
            <mxPoint x="560" y="280" as="sourcePoint" />
            <mxPoint x="580" y="300" as="targetPoint" />
          </mxGeometry>
        </mxCell>
        <mxCell id="UZbxEznuN5tXVeX-XE2H-2" value="" style="endArrow=classic;html=1;rounded=0;" edge="1" parent="1">
          <mxGeometry width="50" height="50" relative="1" as="geometry">
            <mxPoint x="560" y="250" as="sourcePoint" />
            <mxPoint x="580" y="250" as="targetPoint" />
          </mxGeometry>
        </mxCell>
        <mxCell id="UZbxEznuN5tXVeX-XE2H-4" value="&lt;font style=&quot;font-size: 6px;&quot;&gt;Проверка объявлений на корректность&lt;/font&gt;" style="ellipse;whiteSpace=wrap;html=1;" vertex="1" parent="1">
          <mxGeometry x="497.5" y="110" width="75" height="50" as="geometry" />
        </mxCell>
        <mxCell id="UZbxEznuN5tXVeX-XE2H-5" value="&lt;font style=&quot;font-size: 6px;&quot;&gt;Удаление пользователей&lt;/font&gt;" style="ellipse;whiteSpace=wrap;html=1;" vertex="1" parent="1">
          <mxGeometry x="497.5" y="360" width="75" height="50" as="geometry" />
        </mxCell>
        <mxCell id="UZbxEznuN5tXVeX-XE2H-6" value="&lt;font style=&quot;font-size: 6px;&quot;&gt;Изменение привилегий у любого пользователя&lt;/font&gt;" style="ellipse;whiteSpace=wrap;html=1;" vertex="1" parent="1">
          <mxGeometry x="572.5" y="300" width="75" height="50" as="geometry" />
        </mxCell>
        <mxCell id="UZbxEznuN5tXVeX-XE2H-7" value="&lt;font style=&quot;font-size: 6px;&quot;&gt;Просмотр информации о всех пользователях&lt;/font&gt;" style="ellipse;whiteSpace=wrap;html=1;" vertex="1" parent="1">
          <mxGeometry x="590" y="225" width="75" height="50" as="geometry" />
        </mxCell>
        <mxCell id="UZbxEznuN5tXVeX-XE2H-8" value="&lt;font style=&quot;font-size: 6px;&quot;&gt;Удаление объявлений любого типа&lt;/font&gt;" style="ellipse;whiteSpace=wrap;html=1;" vertex="1" parent="1">
          <mxGeometry x="572.5" y="150" width="75" height="50" as="geometry" />
        </mxCell>
        <mxCell id="UZbxEznuN5tXVeX-XE2H-9" value="" style="endArrow=classic;startArrow=classic;html=1;rounded=0;" edge="1" parent="1" source="dH_yjZAZ00_U3dzywP2J-1" target="dH_yjZAZ00_U3dzywP2J-2">
          <mxGeometry width="50" height="50" relative="1" as="geometry">
            <mxPoint x="340" y="270" as="sourcePoint" />
            <mxPoint x="390" y="220" as="targetPoint" />
          </mxGeometry>
        </mxCell>
        <mxCell id="UZbxEznuN5tXVeX-XE2H-13" value="" style="endArrow=classic;html=1;rounded=0;" edge="1" parent="1">
          <mxGeometry width="50" height="50" relative="1" as="geometry">
            <mxPoint x="204.66000000000003" y="210" as="sourcePoint" />
            <mxPoint x="204.66000000000003" y="170" as="targetPoint" />
            <Array as="points">
              <mxPoint x="204.66000000000003" y="200" />
              <mxPoint x="204.66000000000003" y="190" />
            </Array>
          </mxGeometry>
        </mxCell>
        <mxCell id="UZbxEznuN5tXVeX-XE2H-15" value="" style="endArrow=classic;html=1;rounded=0;" edge="1" parent="1">
          <mxGeometry width="50" height="50" relative="1" as="geometry">
            <mxPoint x="204.66000000000003" y="310" as="sourcePoint" />
            <mxPoint x="204.66000000000003" y="350" as="targetPoint" />
          </mxGeometry>
        </mxCell>
        <mxCell id="UZbxEznuN5tXVeX-XE2H-16" value="" style="endArrow=classic;html=1;rounded=0;" edge="1" parent="1">
          <mxGeometry width="50" height="50" relative="1" as="geometry">
            <mxPoint x="230" y="220" as="sourcePoint" />
            <mxPoint x="250" y="200" as="targetPoint" />
          </mxGeometry>
        </mxCell>
        <mxCell id="UZbxEznuN5tXVeX-XE2H-17" value="" style="endArrow=classic;html=1;rounded=0;" edge="1" parent="1">
          <mxGeometry width="50" height="50" relative="1" as="geometry">
            <mxPoint x="230" y="280" as="sourcePoint" />
            <mxPoint x="250" y="300" as="targetPoint" />
          </mxGeometry>
        </mxCell>
        <mxCell id="UZbxEznuN5tXVeX-XE2H-19" value="" style="endArrow=classic;html=1;rounded=0;" edge="1" parent="1">
          <mxGeometry width="50" height="50" relative="1" as="geometry">
            <mxPoint x="180" y="220" as="sourcePoint" />
            <mxPoint x="160" y="200" as="targetPoint" />
          </mxGeometry>
        </mxCell>
        <mxCell id="UZbxEznuN5tXVeX-XE2H-20" value="" style="endArrow=classic;html=1;rounded=0;" edge="1" parent="1">
          <mxGeometry width="50" height="50" relative="1" as="geometry">
            <mxPoint x="180" y="280" as="sourcePoint" />
            <mxPoint x="160" y="300" as="targetPoint" />
          </mxGeometry>
        </mxCell>
        <mxCell id="UZbxEznuN5tXVeX-XE2H-21" value="" style="endArrow=classic;html=1;rounded=0;" edge="1" parent="1">
          <mxGeometry width="50" height="50" relative="1" as="geometry">
            <mxPoint x="167.5" y="250" as="sourcePoint" />
            <mxPoint x="130" y="250" as="targetPoint" />
          </mxGeometry>
        </mxCell>
        <mxCell id="UZbxEznuN5tXVeX-XE2H-23" value="&lt;font style=&quot;font-size: 6px;&quot;&gt;Редактирование, удаление своих объявлений&lt;/font&gt;" style="ellipse;whiteSpace=wrap;html=1;" vertex="1" parent="1">
          <mxGeometry x="167.5" y="360" width="75" height="50" as="geometry" />
        </mxCell>
        <mxCell id="UZbxEznuN5tXVeX-XE2H-24" value="&lt;font style=&quot;font-size: 6px;&quot;&gt;Добавление объявлений&lt;/font&gt;" style="ellipse;whiteSpace=wrap;html=1;" vertex="1" parent="1">
          <mxGeometry x="242.5" y="300" width="75" height="50" as="geometry" />
        </mxCell>
        <mxCell id="UZbxEznuN5tXVeX-XE2H-25" value="&lt;font style=&quot;font-size: 6px;&quot;&gt;Изменение данных своего профилья&lt;/font&gt;" style="ellipse;whiteSpace=wrap;html=1;" vertex="1" parent="1">
          <mxGeometry x="80" y="300" width="75" height="50" as="geometry" />
        </mxCell>
        <mxCell id="UZbxEznuN5tXVeX-XE2H-26" value="&lt;font style=&quot;font-size: 6px;&quot;&gt;Просмотр всех актуальных объявлений&lt;/font&gt;" style="ellipse;whiteSpace=wrap;html=1;" vertex="1" parent="1">
          <mxGeometry x="252.5" y="150" width="75" height="50" as="geometry" />
        </mxCell>
        <mxCell id="UZbxEznuN5tXVeX-XE2H-27" value="&lt;font style=&quot;font-size: 6px;&quot;&gt;Регистрация&lt;/font&gt;" style="ellipse;whiteSpace=wrap;html=1;" vertex="1" parent="1">
          <mxGeometry x="40" y="225" width="75" height="50" as="geometry" />
        </mxCell>
        <mxCell id="UZbxEznuN5tXVeX-XE2H-28" value="&lt;font style=&quot;font-size: 6px;&quot;&gt;Авторизация&lt;/font&gt;" style="ellipse;whiteSpace=wrap;html=1;" vertex="1" parent="1">
          <mxGeometry x="167.5" y="110" width="75" height="50" as="geometry" />
        </mxCell>
        <mxCell id="UZbxEznuN5tXVeX-XE2H-29" value="&lt;font style=&quot;font-size: 6px;&quot;&gt;Вход через &quot;ВКонтакте&quot;&lt;/font&gt;" style="ellipse;whiteSpace=wrap;html=1;" vertex="1" parent="1">
          <mxGeometry x="80" y="150" width="75" height="50" as="geometry" />
        </mxCell>
      </root>
    </mxGraphModel>
  </diagram>
</mxfile>
